<?xml version="1.0" encoding="utf-8"?>
<!-- Generator: Adobe Illustrator 20.1.0, SVG Export Plug-In . SVG Version: 6.00 Build 0)  -->
<svg version="1.1" id="Layer_1" xmlns="http://www.w3.org/2000/svg" xmlns:xlink="http://www.w3.org/1999/xlink" x="0px" y="0px"
	 viewBox="0 0 100 100" style="enable-background:new 0 0 100 100;" xml:space="preserve">
<style type="text/css">
	.st0{fill:#231F20;}
	.st1{fill-rule:evenodd;clip-rule:evenodd;fill:#231F20;}
	.st2{clip-path:url(#SVGID_2_);}
	.st3{clip-path:url(#SVGID_4_);fill:#231F20;}
</style>
<g>
	<path class="st1" d="M88.9,58.6c3.4,0,6.4,0.9,8.9,2.9h2.2c-0.5-4-5.9-7.7-12-7.6l-1.5,0.3c0.3-0.5,0.5-1,0.7-1.5
		c0.1,0,0.3-0.1,0.3-0.1L91,52v-4.8l-2.1-0.4c0-0.2,0-0.4,0-0.6c0-6.7-8.9-20.9-14.3-27c-1.6-1.8-3-2.7-6.7-2.7H24.7
		C1.2,16.5,2,31,2,31v15.5h29v-8.4v-5.2v-8.5c0-1.3,0.9-1.9,2.2-1.9h15.3c1.3,0,2.5,0.6,2.5,1.9v8.5v5.2v26.1c0,1.4-0.5,3.3-1.8,3.3
		h-10c-1.4,0-2.7-1.5-2.7-2.9c0,0,0-9.4-3.7-12c-1.6-1.1-1.8-3-1.9-4H2v4.4l-2,0.3V58l2,0.3v14.2h25.5h47
		C74.9,64.5,81.1,58.6,88.9,58.6z M69.4,42.5H57.3c-1.3,0-2.3-1.4-2.3-2.7V24.4c0-1.3,1-1.9,2.3-1.9h10.4c1.3,0,2.3,0.8,2.3,2.1
		l1.7,15.5C71.7,41.4,70.6,42.5,69.4,42.5z M78,40.4c-0.1,0-0.2,0-0.3,0c-0.9,0-1.7-0.6-1.8-1.5L73.2,25c-0.2-1,0.5-2,1.5-2.2
		l0.9-0.2c3.2,4.3,7.3,10.8,9.7,16.4L78,40.4L78,40.4z"/>
	<path class="st1" d="M16.6,83.5c5.5,0,10.1-3.9,11.2-9H5.4C6.5,79.6,11.1,83.5,16.6,83.5z"/>
	<path class="st1" d="M88.5,60.5C82.1,60.5,77,65.6,77,72c0,6.4,5.1,11.5,11.5,11.5S100,78.4,100,72C100,65.6,94.9,60.5,88.5,60.5z
		 M88.5,75.7c-2.1,0-3.8-1.7-3.8-3.8c0-2.1,1.7-3.8,3.8-3.8s3.8,1.7,3.8,3.8C92.2,74.1,90.6,75.7,88.5,75.7z"/>
</g>
</svg>
